<svg width="16" height="16" viewBox="0 0 16 16" fill="none" xmlns="http://www.w3.org/2000/svg">
<path d="M8.60537 0.225251C8.27032 0.3402 7.94651 0.503477 7.64013 0.711957L6.7509 1.36632C6.14408 1.81111 5.11716 1.93642 4.85309 1.60283C4.61437 1.2966 4.62537 1.15803 4.89644 0.963008C5.04814 0.865496 5.36255 0.837696 5.76399 0.893296C6.28412 0.976694 6.40415 0.948895 6.40415 0.782097C6.40415 0.531902 5.85068 0.281705 5.46058 0.364676C4.59303 0.535751 4.46299 0.587073 4.35463 0.749593C4.09457 1.1529 4.12691 1.55621 4.45233 1.94583C5.16817 2.80804 6.41515 2.79436 7.85718 1.89023C9.05748 1.13921 9.63563 0.930504 10.4272 0.94419C11.132 0.94419 11.5008 1.13879 11.5008 1.51429C11.5008 2.09851 10.1127 2.32091 9.6683 1.79229C9.44058 1.52798 9.4189 1.51429 9.16951 1.72258C8.84409 1.98689 8.83342 2.10749 9.09349 2.38977C9.35355 2.69599 9.6683 2.79307 10.3515 2.80719C11.5118 2.83499 12.3686 2.3068 12.3686 1.54124C12.3686 0.317203 10.4168 -0.378213 8.60603 0.215414L8.60537 0.225251ZM1.47024 1.4912C0.678712 2.01554 0.559349 2.53432 1.09115 3.10486C1.52459 3.57788 2.33813 3.95338 3.6938 4.30109C5.29854 4.7044 6.15542 4.7878 8.62771 4.77411C11.7075 4.76 13.9304 4.31521 15.286 3.44829C16.1209 2.90598 16.2076 2.14085 15.4921 1.59812C15.1777 1.36161 15.1667 1.36161 15.232 1.62592C15.3297 2.02923 15.2104 2.32134 14.8093 2.64125C14.4192 2.94747 13.1068 3.41963 12.2936 3.54537C12.0009 3.58729 11.6535 3.65657 11.5021 3.69848C10.9273 3.8794 6.35147 3.8516 5.2672 3.67068C3.45674 3.36446 2.20976 2.84953 1.85134 2.25205C1.64529 1.93214 1.64529 1.87654 1.79699 1.57032C1.99204 1.19481 1.91636 1.1854 1.47158 1.48692L1.47024 1.4912ZM0.916772 4.55172C0.949447 4.87163 1.07948 5.60895 1.20951 6.17906L1.44824 7.22261L0.894766 7.99245C-0.2982 9.67111 -0.2982 11.8309 0.894433 13.1525C1.59928 13.9223 2.78157 14.0848 3.54043 13.528C3.72481 13.389 3.71381 13.3749 3.44274 13.3569C2.85726 13.3569 1.94636 12.5503 1.50892 11.6876C1.2812 11.2429 1.10782 10.2134 1.16217 9.6848C1.21651 9.22589 1.59561 8.21057 1.71564 8.21057C1.75898 8.21057 1.90002 8.51679 2.03005 8.87776C2.17109 9.25326 2.64821 10.2408 3.11432 11.0761C3.86251 12.4254 4.43732 13.8162 4.44799 14.2893C4.44799 14.637 5.29387 15.3187 6.10707 15.6523C6.82292 15.9444 7.159 16 8.37331 16C10.9973 16 12.2229 15.2729 12.613 13.4963C12.7107 13.0789 13.0031 12.3557 13.2632 11.8968C14.5969 9.53169 14.8569 8.96201 15.3237 7.30644C15.4754 6.76413 15.6705 5.88781 15.7792 5.35919L15.9959 4.21855C16.0286 4.12104 15.8625 4.19075 15.6381 4.38962C15.0527 4.89002 14.1201 5.27921 12.9488 5.51615C12.7321 5.55806 12.45 5.62735 12.32 5.65514C11.279 5.91945 6.98529 6.03065 5.47758 5.80826C3.31971 5.50203 1.6933 4.9315 1.09648 4.26859L0.847088 3.97648L0.916772 4.55172Z" fill="#E4E4E4"/>
</svg>
