<svg width="291" height="113" viewBox="0 0 291 113" fill="none" xmlns="http://www.w3.org/2000/svg">
<mask id="mask0_42_1331" style="mask-type:luminance" maskUnits="userSpaceOnUse" x="10" y="0" width="120" height="105">
<path d="M129.439 0H10.9516V104.308H129.439V0Z" fill="white"/>
</mask>
<g mask="url(#mask0_42_1331)">
<path d="M74.656 12.6342C72.1754 13.2183 69.7781 14.0479 67.5097 15.1072L60.9263 18.432C56.4337 20.692 48.8308 21.3287 46.8758 19.6337C45.1083 18.0778 45.1898 17.3737 47.1967 16.3828C48.3198 15.8873 50.6476 15.7461 53.6196 16.0286C57.4705 16.4523 58.3591 16.3111 58.3591 15.4636C58.3591 14.1923 54.2614 12.9211 51.3733 13.3426C44.9503 14.2119 43.9876 14.4726 43.1854 15.2984C41.26 17.3477 41.4994 19.3968 43.9087 21.3765C49.2085 25.7575 58.4405 25.6879 69.1167 21.094C78.0032 17.2781 82.2835 16.2177 88.1434 16.2872C93.3619 16.2872 96.0919 17.2759 96.0919 19.1839C96.0919 22.1523 85.8162 23.2823 82.5252 20.5964C80.8395 19.2534 80.6791 19.1839 78.833 20.2422C76.4234 21.5852 76.3444 22.198 78.2698 23.6322C80.1949 25.1881 82.5252 25.6814 87.5833 25.7531C96.1733 25.8943 102.517 23.2106 102.517 19.3208C102.517 13.1015 88.0675 9.56804 74.6609 12.5843L74.656 12.6342ZM21.8306 19.0665C15.9704 21.7307 15.0867 24.3667 19.024 27.2656C22.2329 29.669 28.256 31.577 38.2928 33.3436C50.1736 35.3929 56.5176 35.8166 74.8214 35.7471C97.6228 35.6754 114.08 33.4154 124.117 29.0105C130.298 26.2551 130.94 22.3675 125.643 19.6098C123.315 18.4081 123.233 18.4081 123.717 19.7511C124.44 21.8002 123.556 23.2845 120.587 24.91C117.699 26.4659 107.983 28.865 101.962 29.5038C99.7952 29.7168 97.2231 30.0688 96.1021 30.2818C91.8466 31.201 57.9691 31.0598 49.9416 30.1405C36.5378 28.5846 27.3056 25.9682 24.6521 22.9325C23.1266 21.307 23.1266 21.0245 24.2497 19.4686C25.6938 17.5606 25.1334 17.5128 21.8405 19.0448L21.8306 19.0665ZM17.7329 34.6171C17.9749 36.2425 18.9375 39.9889 19.9002 42.8857L21.6677 48.188L17.5701 52.0995C8.73781 60.6288 8.73781 71.6028 17.5675 78.3176C22.7859 82.2292 31.5391 83.0549 37.1574 80.226C38.5224 79.5195 38.441 79.4476 36.4341 79.3568C32.0995 79.3568 25.3556 75.2579 22.1169 70.8749C20.431 68.6149 19.1474 63.3843 19.5497 60.6983C19.9521 58.3667 22.7588 53.2078 23.6474 53.2078C23.9683 53.2078 25.0125 54.7637 25.9752 56.5978C27.0193 58.5057 30.5517 63.5233 34.0026 67.7674C39.5419 74.6234 43.7976 81.6902 43.8765 84.0941C43.8765 85.8602 50.1391 89.3245 56.1597 91.0195C61.4595 92.5035 63.9477 92.7864 72.9379 92.7864C92.3645 92.7864 101.439 89.0921 104.327 80.0648C105.05 77.9439 107.215 74.2692 109.141 71.9375C119.014 59.9204 120.94 57.0258 124.396 48.6139C125.519 45.8584 126.963 41.4057 127.768 38.7198L129.372 32.9243C129.614 32.4288 128.385 32.783 126.724 33.7935C122.389 36.336 115.485 38.3135 106.813 39.5174C105.208 39.7303 103.12 40.0824 102.158 40.2236C94.4508 41.5666 62.6617 42.1316 51.4992 41.0016C35.5233 39.4456 23.482 36.5467 19.0635 33.1785L17.217 31.6943L17.7329 34.6171Z" fill="#E4E4E4"/>
</g>
<path d="M128.534 41.5848C128.534 39.7904 129.831 38.8932 132.421 38.8932C133.758 38.8932 134.907 38.4981 135.869 37.7079C137.921 36.0287 139.633 31.3367 141.002 23.6322C141.882 18.7428 142.322 15.3515 142.322 13.4582C142.322 9.88583 142.493 7.74569 142.836 7.0378C143.308 6.05003 144.489 5.55615 146.38 5.55615C147.016 5.55615 147.407 5.81955 147.553 6.34636C147.7 6.87317 147.773 7.95148 147.773 9.58128L147.798 10.0258C147.798 11.6885 147.17 16.0017 145.915 22.9655C144.661 29.9292 143.577 34.4893 142.664 36.646C141.768 38.8026 140.521 40.5065 138.924 41.7577C137.327 43.0253 135.543 43.6591 133.571 43.6591H133.106C131.721 43.6591 130.613 43.478 129.781 43.1158C128.951 42.7537 128.534 42.2433 128.534 41.5848ZM156.5 32.8925C156.5 35.4936 157.649 36.7941 159.947 36.7941C160.876 36.7941 161.895 36.4731 163.003 35.8311C164.127 35.1725 165.081 34.2177 165.863 32.9666C166.645 31.6989 167.387 29.1966 168.088 25.4596C168.805 21.7225 169.302 19.4919 169.579 18.7675C170.084 17.434 170.85 16.7673 171.877 16.7673C172.92 16.7673 173.441 17.2364 173.441 18.1748V18.6934L172.659 24.3483C172.268 27.1305 171.958 29.888 171.73 32.6208C171.518 35.3372 171.339 36.9259 171.192 37.3868C170.818 38.6215 169.994 39.2388 168.724 39.2388C168.023 39.2388 167.534 39.0496 167.256 38.6709C166.669 37.8807 166.303 37.4856 166.156 37.4856C166.124 37.4856 165.684 37.7407 164.837 38.251C163.989 38.7614 163.125 39.1812 162.245 39.5105C161.381 39.8398 160.257 40.0044 158.872 40.0044H158.285C156.199 40.0044 154.618 39.4281 153.542 38.2758C152.467 37.1234 151.929 35.4771 151.929 33.337C151.929 31.1803 152.712 25.9946 154.276 17.7797C154.488 16.6932 155.05 16.1499 155.963 16.1499C156.876 16.1499 157.544 16.331 157.968 16.6932C158.407 17.0389 158.627 17.8044 158.627 18.9897C158.627 20.175 158.269 22.4963 157.551 25.9535C156.851 29.3941 156.5 31.7072 156.5 32.8925ZM189.967 15.582C191.71 15.582 193.405 16.0923 195.051 17.1129C195.67 17.4916 195.98 17.8127 195.98 18.076V18.4958C195.98 19.5659 195.434 20.101 194.343 20.101C193.967 20.101 193.136 19.9116 191.849 19.533C190.578 19.1379 189.404 18.9404 188.329 18.9404C187.253 18.9404 186.357 19.2696 185.639 19.9281C184.923 20.5701 184.564 21.3357 184.564 22.2246C184.564 23.1136 185.02 23.8627 185.933 24.4718C186.34 24.7517 187.465 25.2949 189.306 26.1016C191.164 26.9083 192.484 27.682 193.266 28.4229C194.424 29.5259 195.002 31.0487 195.002 32.9912C195.002 34.9338 194.106 36.7036 192.313 38.3005C190.52 39.8974 188.28 40.6958 185.591 40.6958H184.417C182.967 40.6958 181.402 40.383 179.724 39.7574C178.061 39.1154 177.23 38.4569 177.23 37.7819V37.3374C177.23 36.9093 177.442 36.506 177.866 36.1274C178.29 35.7488 178.705 35.5594 179.113 35.5594C179.52 35.5594 180.449 35.8311 181.899 36.3743C183.35 36.9011 184.686 37.1645 185.908 37.1645C187.131 37.1645 188.223 36.8024 189.184 36.078C190.162 35.3537 190.651 34.4647 190.651 33.411C190.651 32.341 190.154 31.4602 189.159 30.7688C188.655 30.4231 187.489 29.888 185.664 29.1636C183.855 28.4393 182.495 27.6079 181.582 26.6696C180.685 25.7148 180.237 24.4471 180.237 22.8667C180.237 20.7924 181.052 19.0556 182.681 17.6563C184.312 16.2569 186.357 15.5572 188.818 15.5572L189.38 15.582H189.967ZM214.803 16.5203V17.2364C214.803 18.1584 214.038 18.7593 212.505 19.0391C210.973 19.319 209.988 19.9034 209.547 20.7924C209.352 21.1875 208.896 22.6939 208.178 25.3114C207.478 27.9125 207.127 30.4807 207.127 33.0159C207.127 34.1683 207.363 34.9586 207.837 35.3865C208.309 35.8146 208.904 36.078 209.621 36.1767C210.354 36.2591 210.826 36.3496 211.038 36.4484C211.641 36.7447 211.943 37.2468 211.943 37.9547C211.943 38.6461 211.691 39.1648 211.185 39.5105C210.337 40.1031 209.238 40.3995 207.885 40.3995H206.981C205.514 40.3995 204.357 39.8809 203.509 38.8437C202.662 37.7901 202.238 36.4649 202.238 34.868C202.238 33.2546 202.507 30.9993 203.044 28.1018C203.599 25.2044 203.876 22.7761 203.876 20.8171C203.876 20.0598 203.485 19.5247 202.703 19.212C201.937 18.8992 201.553 18.4794 201.553 17.9526C201.553 17.0142 202.092 16.3063 203.167 15.8288C204.553 15.2197 205.367 14.6847 205.612 14.2238C205.726 14.0098 205.954 13.1784 206.296 11.7297C206.655 10.2645 206.972 9.34256 207.25 8.96397C207.837 8.14081 208.594 7.72923 209.523 7.72923C210.468 7.72923 210.941 8.25602 210.941 9.30961L210.867 9.77884L210.696 11.2358C210.599 12.1741 210.549 12.9479 210.549 13.557C210.549 14.1662 210.688 14.5695 210.966 14.767C211.258 14.9482 211.968 15.2033 213.092 15.5325C214.233 15.8454 214.803 16.1746 214.803 16.5203ZM131.517 93.5411V92.9982C131.517 91.1049 131.875 89.1783 132.593 87.2194C133.995 83.4327 136.276 80.7579 139.437 79.194C141.083 78.3871 142.721 77.9838 144.351 77.9838L144.865 78.0086L145.891 77.9838C147.227 77.9838 148.466 78.346 149.607 79.07C150.747 79.7946 151.318 80.5437 151.318 81.3173C151.318 81.7946 151.114 82.2229 150.707 82.6014C150.316 82.9641 149.86 83.1451 149.338 83.1451C148.817 83.1451 148.002 82.9309 146.893 82.5026C145.801 82.0585 144.823 81.8357 143.96 81.8357C143.096 81.8357 142.168 82.1162 141.173 82.6757C140.179 83.2186 139.275 84.0752 138.46 85.2439C136.993 87.3672 136.26 90.0349 136.26 93.2448C136.26 95.0559 136.692 96.5123 137.555 97.6154C138.435 98.7185 139.674 99.2701 141.271 99.2701C142.216 99.2701 143.406 99.0315 144.84 98.5542C146.29 98.0603 147.244 97.813 147.7 97.813C148.694 97.813 149.191 98.2823 149.191 99.2203C149.191 99.9449 148.221 100.76 146.282 101.665C144.359 102.554 142.428 102.999 140.489 102.999C137.718 102.999 135.526 102.159 133.913 100.48C132.316 98.7841 131.517 96.4712 131.517 93.5411ZM159.018 92.5533V93.0717C159.018 95.0306 159.459 96.57 160.339 97.6897C161.235 98.8094 162.498 99.3689 164.127 99.3689L164.396 99.3444C166.418 99.3444 168.226 98.2902 169.824 96.1835C171.42 94.0595 172.219 91.7552 172.219 89.2692L172.268 88.7753L172.292 87.7378L172.268 87.4667C172.268 85.4414 171.836 83.8855 170.972 82.799C170.108 81.7124 168.968 81.1696 167.55 81.1696H167.012C166.099 81.1696 165.154 81.4327 164.176 81.9598C163.199 82.486 162.351 83.2604 161.634 84.2806C159.89 86.7832 159.018 89.5402 159.018 92.5533ZM167.159 77.6135H167.941C170.451 77.6135 172.635 78.4695 174.492 80.1818C175.226 80.8566 175.853 81.7946 176.375 82.9965C176.912 84.1984 177.181 85.4912 177.181 86.8741L177.157 87.2692V87.6643C177.157 87.6967 177.157 87.7299 177.157 87.7623C177.157 87.7955 177.157 87.8287 177.157 87.8618C177.157 89.6066 176.742 91.4834 175.91 93.4913C174.183 97.6565 171.811 100.439 168.796 101.838C167.118 102.628 165.39 103.024 163.614 103.024H163.223C161.903 103.024 160.664 102.785 159.507 102.308C158.35 101.814 157.413 101.171 156.696 100.381C155.131 98.6364 154.349 96.4056 154.349 93.6888V92.8741C154.349 91.1128 154.659 89.2771 155.278 87.3672C155.913 85.458 156.794 83.7954 157.918 82.3794C159.042 80.9475 160.436 79.7946 162.099 78.9222C163.761 78.0496 165.448 77.6135 167.159 77.6135ZM195.442 66.4764C197.708 66.4764 198.841 66.9867 198.841 68.0074C198.841 68.8306 198.433 69.4891 197.618 69.9829C197.406 70.1147 196.616 70.2875 195.247 70.5016C192.183 70.9789 190.651 72.7981 190.651 75.9589C190.651 76.9631 191.156 77.564 192.166 77.7615C193.193 77.9426 193.731 78.0414 193.78 78.0579C194.758 78.3213 195.247 78.7246 195.247 79.2675C195.247 80.1075 194.513 80.8645 193.046 81.5402C191.596 82.1984 190.724 82.7666 190.431 83.2439C189.339 85.0384 188.312 88.5944 187.351 93.9117C186.406 99.229 185.729 102.439 185.322 103.542C184.914 104.645 184.409 105.419 183.806 105.864C183.203 106.324 182.34 106.555 181.215 106.555C180.107 106.555 179.552 106.127 179.552 105.271C179.552 104.431 179.968 103.031 180.799 101.073C181.631 99.1136 182.209 97.41 182.535 95.9615C183.415 92.1582 183.855 88.8575 183.855 86.0586L183.733 83.2186C183.733 82.8567 183.554 82.2806 183.195 81.4904C182.853 80.7002 182.681 80.1897 182.681 79.9597C182.681 79.1198 183.024 78.4613 183.709 77.9838C185.045 77.0454 185.851 76.2552 186.129 75.6132C187.986 71.3329 188.956 69.1516 189.037 69.0692C190.651 67.3407 192.583 66.4764 194.831 66.4764H195.442ZM212.994 66.4764C215.259 66.4764 216.392 66.9867 216.392 68.0074C216.392 68.8306 215.985 69.4891 215.169 69.9829C214.958 70.1147 214.167 70.2875 212.798 70.5016C209.735 70.9789 208.203 72.7981 208.203 75.9589C208.203 76.9631 208.708 77.564 209.719 77.7615C210.745 77.9426 211.283 78.0414 211.332 78.0579C212.31 78.3213 212.798 78.7246 212.798 79.2675C212.798 80.1075 212.065 80.8645 210.599 81.5402C209.148 82.1984 208.276 82.7666 207.983 83.2439C206.891 85.0384 205.864 88.5944 204.903 93.9117C203.957 99.229 203.281 102.439 202.874 103.542C202.466 104.645 201.961 105.419 201.358 105.864C200.755 106.324 199.891 106.555 198.767 106.555C197.659 106.555 197.105 106.127 197.105 105.271C197.105 104.431 197.52 103.031 198.351 101.073C199.182 99.1136 199.761 97.41 200.087 95.9615C200.967 92.1582 201.407 88.8575 201.407 86.0586L201.284 83.2186C201.284 82.8567 201.105 82.2806 200.747 81.4904C200.405 80.7002 200.234 80.1897 200.234 79.9597C200.234 79.1198 200.576 78.4613 201.26 77.9838C202.597 77.0454 203.404 76.2552 203.68 75.6132C205.538 71.3329 206.508 69.1516 206.59 69.0692C208.203 67.3407 210.134 66.4764 212.383 66.4764H212.994ZM228.591 81.194H228.248L228.077 81.2185C226.415 81.2185 224.948 81.861 223.677 83.1451C221.835 85.0052 220.914 86.701 220.914 88.2317C220.914 88.7255 221.208 88.9729 221.794 88.9729H222.088L222.259 88.9476L223.848 88.8243C224.484 88.7255 224.907 88.6765 225.119 88.6765C226.945 88.6765 228.9 88.1993 230.986 87.2439C231.899 86.8322 232.355 86.125 232.355 85.1206V84.5034C232.355 83.5813 231.997 82.799 231.279 82.1573C230.563 81.5149 229.666 81.194 228.591 81.194ZM224.752 102.876H224.215C223.008 102.876 221.835 102.653 220.695 102.209C219.57 101.747 218.625 101.106 217.859 100.282C216.294 98.5866 215.512 96.389 215.512 93.6888V92.6276C215.512 90.965 215.863 89.1451 216.563 87.1696C218.047 83.021 220.515 80.2229 223.97 78.774C225.519 78.1155 227.034 77.7863 228.517 77.7863H229.055C231.239 77.7863 233.015 78.3871 234.384 79.5891C235.753 80.7745 236.437 82.3628 236.437 84.3549V84.8733C236.437 87.0795 235.574 88.701 233.847 89.7378C232.461 90.5778 229.446 91.3601 224.801 92.0839C222.879 92.3803 221.803 92.5612 221.575 92.6276C220.874 92.8417 220.523 93.5909 220.523 94.8742C220.523 96.159 221.135 97.229 222.357 98.0848C223.22 98.694 224.264 98.9983 225.486 98.9983C226.724 98.9983 228.126 98.7351 229.691 98.2081C231.255 97.6818 232.338 97.4178 232.942 97.4178C233.545 97.4178 233.847 97.8951 233.847 98.8505C233.847 99.6731 232.82 100.554 230.766 101.493C228.713 102.414 226.708 102.876 224.752 102.876ZM253.134 81.194H252.791L252.621 81.2185C250.958 81.2185 249.492 81.861 248.22 83.1451C246.378 85.0052 245.458 86.701 245.458 88.2317C245.458 88.7255 245.751 88.9729 246.338 88.9729H246.631L246.802 88.9476L248.391 88.8243C249.027 88.7255 249.45 88.6765 249.662 88.6765C251.488 88.6765 253.444 88.1993 255.529 87.2439C256.442 86.8322 256.898 86.125 256.898 85.1206V84.5034C256.898 83.5813 256.54 82.799 255.823 82.1573C255.106 81.5149 254.21 81.194 253.134 81.194ZM249.296 102.876H248.758C247.552 102.876 246.378 102.653 245.238 102.209C244.113 101.747 243.168 101.106 242.402 100.282C240.838 98.5866 240.055 96.389 240.055 93.6888V92.6276C240.055 90.965 240.406 89.1451 241.107 87.1696C242.59 83.021 245.059 80.2229 248.514 78.774C250.062 78.1155 251.577 77.7863 253.06 77.7863H253.599C255.782 77.7863 257.558 78.3871 258.927 79.5891C260.296 80.7745 260.981 82.3628 260.981 84.3549V84.8733C260.981 87.0795 260.117 88.701 258.389 89.7378C257.005 90.5778 253.99 91.3601 249.345 92.0839C247.422 92.3803 246.346 92.5612 246.118 92.6276C245.417 92.8417 245.067 93.5909 245.067 94.8742C245.067 96.159 245.678 97.229 246.9 98.0848C247.764 98.694 248.807 98.9983 250.029 98.9983C251.268 98.9983 252.669 98.7351 254.234 98.2081C255.798 97.6818 256.882 97.4178 257.485 97.4178C258.088 97.4178 258.389 97.8951 258.389 98.8505C258.389 99.6731 257.363 100.554 255.309 101.493C253.256 102.414 251.252 102.876 249.296 102.876Z" fill="#E4E4E4"/>
</svg>
